<?xml version="1.0" encoding="UTF-8" standalone="no"?>
<svg
   width="512"
   height="512"
   version="1.1"
   viewBox="0 0 384 384"
   id="svg914"
   sodipodi:docname="streamtuner.svg"
   inkscape:version="1.1 (c4e8f9ed74, 2021-05-24)"
   xmlns:inkscape="http://www.inkscape.org/namespaces/inkscape"
   xmlns:sodipodi="http://sodipodi.sourceforge.net/DTD/sodipodi-0.dtd"
   xmlns="http://www.w3.org/2000/svg"
   xmlns:svg="http://www.w3.org/2000/svg">
  <sodipodi:namedview
     id="namedview916"
     pagecolor="#505050"
     bordercolor="#eeeeee"
     borderopacity="1"
     inkscape:pageshadow="0"
     inkscape:pageopacity="0"
     inkscape:pagecheckerboard="0"
     showgrid="false"
     inkscape:zoom="1.3808594"
     inkscape:cx="321.1768"
     inkscape:cy="237.53324"
     inkscape:window-width="2556"
     inkscape:window-height="1418"
     inkscape:window-x="1280"
     inkscape:window-y="18"
     inkscape:window-maximized="1"
     inkscape:current-layer="svg914" />
  <defs
     id="defs896">
    <clipPath
       id="clipPath886">
      <rect
         width="384"
         height="384"
         id="rect884" />
    </clipPath>
    <clipPath
       id="clipPath890">
      <rect
         width="384"
         height="384"
         id="rect888" />
    </clipPath>
    <clipPath
       id="clipPath894">
      <rect
         width="384"
         height="384"
         id="rect892" />
    </clipPath>
    <clipPath
       id="clipPath1076">
      <rect
         width="36"
         height="36"
         id="rect1074" />
    </clipPath>
    <clipPath
       id="clipPath1080">
      <rect
         width="36"
         height="36"
         id="rect1078" />
    </clipPath>
    <clipPath
       id="clipPath1084">
      <rect
         width="36"
         height="36"
         id="rect1082" />
    </clipPath>
  </defs>
  <g
     transform="translate(.0011688 -.0012177)"
     id="g904">
    <path
       d="m335.23 23.932-194.9 44.933c-27.47 3.4612-26.423 31.592-26.423 31.592v119.93c-6.3463-1.8302-12.917-2.7707-19.522-2.7961-39.531 0-71.581 32.049-71.581 71.581 0 39.531 32.049 71.581 71.581 71.581 36.998-0.0173 67.886-28.228 71.25-65.073h0.33045v-180.15l143.16-34.049v99.86c-6.3464-1.8302-12.917-2.7707-19.522-2.7961-39.531 0-71.581 32.049-71.581 71.581s32.049 71.581 71.581 71.581c36.998-0.0174 67.886-28.228 71.25-65.073h0.33044v-208.23s0.33893-30.003-25.957-24.466z"
       fill="#357af0"
       stroke-width="1.0846"
       id="path898" />
    <path
       transform="scale(.75)"
       d="m412.18 98.641-190.88 45.4v10l190.88-45.4zm-121.34 229.86c-0.0855 1.6563-0.13086 3.3224-0.13086 5 0 52.708 42.733 95.441 95.441 95.441 49.33-0.0232 90.515-37.637 95-86.764h0.44141v-10h-0.44141c-4.4851 49.127-45.67 86.741-95 86.764-51.031 0-92.71-40.057-95.311-90.441zm-260.29 52.059c-0.08552 1.6563-0.13086 3.3224-0.13086 5 0 52.708 42.733 95.441 95.441 95.441 49.33-0.0231 90.515-37.637 95-86.764h0.4414v-10h-0.4414c-4.4851 49.127-45.67 86.74-95 86.764-51.031 0-92.71-40.057-95.311-90.441z"
       opacity=".3"
       stroke-width="1.4461"
       id="path900" />
    <path
       transform="scale(.75)"
       d="m454.56 31.004c-2.3228 0.04-4.8448 0.32946-7.584 0.90625l-259.87 59.91c-36.626 4.615-35.23 42.121-35.23 42.121v10s-1.3959-37.506 35.23-42.121l259.87-59.91c35.062-7.3829 34.609 32.621 34.609 32.621v-10s0.38395-33.999-27.025-33.527zm-68.416 207.05c-52.708 0-95.441 42.733-95.441 95.441 0 1.6769 0.0454 3.3443 0.13086 5 2.6014-50.384 44.28-90.441 95.311-90.441 8.8064 0.0338 17.568 1.2883 26.029 3.7285v-10c-8.4618-2.4402-17.223-3.6946-26.029-3.7285zm-260.29 52.059c-52.708 0-95.441 42.733-95.441 95.441 0 1.6769 0.04541 3.3443 0.13086 5 2.6014-50.384 44.28-90.439 95.311-90.439 8.8063 0.0338 17.568 1.2863 26.029 3.7266v-10c-8.4618-2.4402-17.223-3.6945-26.029-3.7285z"
       fill="#fff"
       opacity=".2"
       stroke-width="1.4461"
       id="path902" />
  </g>
  <g
     id="g1328"
     transform="translate(-310.91053,9.1574653)">
    <path
       d="m 694.78785,285.00772 c 0,49.706 -40.294,90 -90,90 -49.706,0 -90,-40.294 -90,-90 0,-49.706 40.294,-90 90,-90 49.706,0 90,40.294 90,90 z"
       fill-rule="evenodd"
       opacity="0.3"
       stroke-width="0.9375"
       id="path1102" />
    <path
       d="m 694.78785,277.50772 c 0,49.706 -40.294,90 -90,90 -49.706,0 -90,-40.294 -90,-90 0,-49.706 40.294,-90 90,-90 49.706,0 90,40.294 90,90 z"
       fill="#d41717"
       fill-rule="evenodd"
       stroke-width="0.9375"
       id="path1104" />
    <path
       d="m 575.53785,244.07772 -11.675,11.675 29.253,29.254 -29.253,29.253 11.675,11.676 29.254,-29.254 29.253,29.254 11.676,-11.676 -29.254,-29.253 29.254,-29.254 -11.676,-11.675 -29.253,29.253 z"
       opacity="0.3"
       stroke-width="11.029"
       id="path1106" />
    <path
       d="m 575.53785,236.57772 -11.675,11.675 29.253,29.254 -29.253,29.253 11.675,11.676 29.254,-29.254 29.253,29.254 11.676,-11.676 -29.254,-29.253 29.254,-29.254 -11.676,-11.675 -29.253,29.253 z"
       fill="#ffffff"
       stroke-width="11.029"
       id="path1108" />
  </g>
</svg>
